# xmcd CD database file
#
# Track frame offsets:
#	150
#	35412
#	51962
#
# Disc length: 1110 seconds
#
# Revision: 0
# Processed by: cddbd v1.5.1PL0 Copyright (c) Steve Scherf et al.
# Submitted via: CDex 1.51
#
DISCID=20045403
DTITLE=ハイポジ - 最悪の日々
DYEAR=1997
DGENRE=JPop
TTITLE0=最悪の日々 Pt.1
TTITLE1=最悪の日々 Pt.2 (the shadow of your smile)
TTITLE2=最悪の日々 (temporary edit)
EXTD=YEAR: 1997
EXTT0=
EXTT1=
EXTT2=
PLAYORDER=
